<svg width="206" height="207" viewBox="0 0 206 207" fill="none" xmlns="http://www.w3.org/2000/svg">
<circle cx="103" cy="103" r="103" fill="#D7D5C6"/>
<path d="M185 163C185 163 159.885 207 103 207C46.1147 207 23 163 23 163C23 163 46.1147 145.5 103 145.5C159.885 145.5 185 163 185 163Z" fill="url(#paint0_linear_1004_40)" fill-opacity="0.3"/>
<path d="M98 85.5C98 83.0147 100.015 81 102.5 81C104.985 81 107 83.0147 107 85.5V159.5C107 161.985 104.985 164 102.5 164C100.015 164 98 161.985 98 159.5V85.5Z" fill="#A39C96"/>
<path d="M118 62.476C118 75.4547 111.06 85.976 102.5 85.976C93.9396 85.976 87 75.4547 87 62.476C87 49.4973 102.5 38.976 102.5 38.976C102.5 38.976 118 49.4973 118 62.476Z" fill="#7D9B6D"/>
<path d="M97.5 127.557C99 126.7 98.5 117.03 98.5 110.5C98.5 101.964 96.157 97.0205 91.5872 90.5569C83.4693 80.5569 67.5174 74.0933 59.1502 73.0933C51.3426 73.0933 43.5792 72.3505 37.0872 75.0569C34.3008 80.6864 37.5174 96.0933 39.5174 102.593C42.4404 112.093 49.7685 121.569 57.0872 127.557C60.4348 130.296 67.9816 131.84 72.0872 133.057C81.5872 133.557 87 133.557 97.5 127.557Z" fill="#7D9B6D"/>
<path d="M106.83 126C107.5 127 111 129.5 116.767 131.233C122.534 132.967 138.079 131.551 145.244 128.188C156.515 121.953 165.68 107.384 168.134 99.3228C169.505 91.6366 171.6 84.1244 170.076 77.2579C165.024 73.526 149.291 73.9864 142.541 74.8136C132.675 76.0225 119.057 83.0907 114.88 87.7254C110.702 92.36 108.263 94.5 106.83 101.526C105.397 108.552 106.161 125 106.83 126Z" fill="#7D9B6D"/>
<path d="M55.9287 95.8875C53.9311 94.409 53.5103 91.591 54.9889 89.5934V89.5934C56.4674 87.5957 59.2854 87.1749 61.283 88.6535L92.5447 111.792C94.5424 113.271 94.9631 116.089 93.4846 118.086V118.086C92.006 120.084 89.188 120.505 87.1904 119.026L55.9287 95.8875Z" fill="#E8E5DF"/>
<path d="M149.233 95.9112C151.231 94.4326 151.651 91.6146 150.173 89.617V89.617C148.694 87.6194 145.876 87.1986 143.879 88.6772L112.617 111.816C110.619 113.294 110.199 116.112 111.677 118.11V118.11C113.156 120.108 115.974 120.528 117.971 119.05L149.233 95.9112Z" fill="#E8E5DF"/>
<defs>
<linearGradient id="paint0_linear_1004_40" x1="104" y1="145.5" x2="104" y2="207" gradientUnits="userSpaceOnUse">
<stop stop-color="#42E5DD" stop-opacity="0"/>
<stop offset="1" stop-color="#257F7B"/>
</linearGradient>
</defs>
</svg>

